<?xml version="1.0" encoding="utf-8"?>
<!-- Generator: Adobe Illustrator 26.0.1, SVG Export Plug-In . SVG Version: 6.00 Build 0)  -->
<svg version="1.1" id="Layer_1" xmlns="http://www.w3.org/2000/svg" xmlns:xlink="http://www.w3.org/1999/xlink" x="0px" y="0px"
	 viewBox="0 0 1920 1080" style="enable-background:new 0 0 1920 1080;" xml:space="preserve">
<style type="text/css">
	.st0{fill:none;}
	.st1{fill:#2E1902;}
	.st2{opacity:0.5;}
	.st3{fill:#EDEDED;}
	.st4{fill:#FFFFFF;}
	.st5{fill:#353535;}
	.st6{fill:#C1C1C1;}
	.st7{fill:#D3D3D3;}
	.st8{fill:url(#New_Pattern_4);}
</style>
<pattern  width="337" height="359" patternUnits="userSpaceOnUse" id="New_Pattern_4" viewBox="0 -359 337 359" style="overflow:visible;">
	<g>
		<rect y="-359" class="st0" width="337" height="359"/>
		<rect y="-359" class="st1" width="337" height="359"/>
		<g class="st2">
			
				<rect x="72.61" y="-305.35" transform="matrix(0.7821 -0.6231 0.6231 0.7821 144.4907 68.4749)" class="st3" width="195.12" height="265.93"/>
			
				<rect x="74.31" y="-307.49" transform="matrix(0.7821 -0.6231 0.6231 0.7821 146.1944 69.0706)" class="st4" width="195.12" height="265.93"/>
			<g>
				
					<ellipse transform="matrix(0.7821 -0.6231 0.6231 0.7821 237.0157 43.1004)" class="st5" cx="180.14" cy="-317.39" rx="4.59" ry="4.64"/>
				
					<ellipse transform="matrix(0.7821 -0.6231 0.6231 0.7821 222.4483 38.007)" class="st5" cx="165.58" cy="-299.1" rx="4.59" ry="4.64"/>
				
					<ellipse transform="matrix(0.7821 -0.6231 0.6231 0.7821 207.881 32.9136)" class="st5" cx="151.01" cy="-280.82" rx="4.59" ry="4.64"/>
				
					<ellipse transform="matrix(0.7821 -0.6231 0.6231 0.7821 193.3137 27.8203)" class="st5" cx="136.44" cy="-262.53" rx="4.59" ry="4.64"/>
				
					<ellipse transform="matrix(0.7821 -0.6231 0.6231 0.7821 178.7464 22.7269)" class="st5" cx="121.87" cy="-244.25" rx="4.59" ry="4.64"/>
				
					<ellipse transform="matrix(0.7821 -0.6231 0.6231 0.7821 164.1791 17.6335)" class="st5" cx="107.31" cy="-225.96" rx="4.59" ry="4.64"/>
				
					<ellipse transform="matrix(0.7821 -0.6231 0.6231 0.7821 149.6118 12.5401)" class="st5" cx="92.74" cy="-207.68" rx="4.59" ry="4.64"/>
				
					<ellipse transform="matrix(0.7821 -0.6231 0.6231 0.7821 135.0445 7.4468)" class="st5" cx="78.17" cy="-189.39" rx="4.59" ry="4.64"/>
				
					<ellipse transform="matrix(0.7821 -0.6231 0.6231 0.7821 120.4772 2.3534)" class="st5" cx="63.6" cy="-171.11" rx="4.59" ry="4.64"/>
				
					<ellipse transform="matrix(0.7821 -0.6231 0.6231 0.7821 105.9099 -2.74)" class="st5" cx="49.04" cy="-152.82" rx="4.59" ry="4.64"/>
				
					<ellipse transform="matrix(0.7821 -0.6231 0.6231 0.7821 91.3425 -7.8334)" class="st5" cx="34.47" cy="-134.54" rx="4.59" ry="4.64"/>
			</g>
			<path class="st6" d="M176.34-318.3l-10.71-8.53c-0.72-0.57-0.83-1.61-0.26-2.33l0,0c0.57-0.72,1.61-0.83,2.33-0.26l10.71,8.53
				c0.72,0.57,0.83,1.61,0.26,2.33l0,0C178.1-317.85,177.05-317.73,176.34-318.3z"/>
			<path class="st7" d="M172.21-323.7l-5.33-4.24c-0.18-0.15-0.21-0.41-0.07-0.6l0,0c0.15-0.18,0.41-0.21,0.6-0.07l5.33,4.24
				c0.18,0.15,0.21,0.41,0.07,0.6l0,0C172.67-323.59,172.4-323.56,172.21-323.7z"/>
			<path class="st6" d="M161.77-300.02l-10.71-8.53c-0.72-0.57-0.83-1.61-0.26-2.33l0,0c0.57-0.72,1.61-0.83,2.33-0.26l10.71,8.53
				c0.72,0.57,0.83,1.61,0.26,2.33h0C163.53-299.56,162.49-299.45,161.77-300.02z"/>
			<path class="st7" d="M157.65-305.42l-5.33-4.24c-0.18-0.15-0.21-0.41-0.07-0.6l0,0c0.15-0.18,0.41-0.21,0.6-0.07l5.33,4.24
				c0.18,0.15,0.21,0.41,0.07,0.6l0,0C158.1-305.3,157.83-305.27,157.65-305.42z"/>
			<path class="st6" d="M147.2-281.73l-10.71-8.53c-0.72-0.57-0.83-1.61-0.26-2.33l0,0c0.57-0.72,1.61-0.83,2.33-0.26l10.71,8.53
				c0.72,0.57,0.83,1.61,0.26,2.33l0,0C148.96-281.28,147.92-281.16,147.2-281.73z"/>
			<path class="st7" d="M143.08-287.13l-5.33-4.24c-0.18-0.15-0.21-0.41-0.07-0.6l0,0c0.15-0.18,0.41-0.21,0.6-0.07l5.33,4.24
				c0.18,0.15,0.21,0.41,0.07,0.6l0,0C143.53-287.02,143.26-286.99,143.08-287.13z"/>
			<path class="st6" d="M132.64-263.45l-10.71-8.53c-0.72-0.57-0.83-1.61-0.26-2.33l0,0c0.57-0.72,1.61-0.83,2.33-0.26l10.71,8.53
				c0.72,0.57,0.83,1.61,0.26,2.33l0,0C134.39-262.99,133.35-262.88,132.64-263.45z"/>
			<path class="st7" d="M128.51-268.85l-5.33-4.24c-0.18-0.15-0.21-0.41-0.07-0.6l0,0c0.15-0.18,0.41-0.21,0.6-0.07l5.33,4.24
				c0.18,0.15,0.21,0.41,0.07,0.6l0,0C128.96-268.73,128.7-268.7,128.51-268.85z"/>
			<path class="st6" d="M118.07-245.16l-10.71-8.53c-0.72-0.57-0.83-1.61-0.26-2.33h0c0.57-0.72,1.61-0.83,2.33-0.26l10.71,8.53
				c0.72,0.57,0.83,1.61,0.26,2.33l0,0C119.83-244.71,118.78-244.59,118.07-245.16z"/>
			<path class="st7" d="M113.95-250.56l-5.33-4.24c-0.18-0.15-0.21-0.41-0.07-0.6l0,0c0.15-0.18,0.41-0.21,0.6-0.07l5.33,4.24
				c0.18,0.15,0.21,0.41,0.07,0.6l0,0C114.4-250.45,114.13-250.42,113.95-250.56z"/>
			<path class="st6" d="M103.5-226.88l-10.71-8.53c-0.72-0.57-0.83-1.61-0.26-2.33v0c0.57-0.72,1.61-0.83,2.33-0.26l10.71,8.53
				c0.72,0.57,0.83,1.61,0.26,2.33h0C105.26-226.42,104.22-226.31,103.5-226.88z"/>
			<path class="st7" d="M99.38-232.28l-5.33-4.24c-0.18-0.15-0.21-0.41-0.07-0.6l0,0c0.15-0.18,0.41-0.21,0.6-0.07l5.33,4.24
				c0.18,0.15,0.21,0.41,0.07,0.6l0,0C99.83-232.16,99.56-232.13,99.38-232.28z"/>
			<path class="st6" d="M88.93-208.59l-10.71-8.53c-0.72-0.57-0.83-1.61-0.26-2.33l0,0c0.57-0.72,1.61-0.83,2.33-0.26L91-211.18
				c0.72,0.57,0.83,1.61,0.26,2.33v0C90.69-208.14,89.65-208.02,88.93-208.59z"/>
			<path class="st7" d="M84.81-213.99l-5.33-4.24c-0.18-0.15-0.21-0.41-0.07-0.6l0,0c0.15-0.18,0.41-0.21,0.6-0.07l5.33,4.24
				c0.18,0.15,0.21,0.41,0.07,0.6l0,0C85.26-213.88,84.99-213.85,84.81-213.99z"/>
			<path class="st6" d="M74.37-190.31l-10.71-8.53c-0.72-0.57-0.83-1.61-0.26-2.33h0c0.57-0.72,1.61-0.83,2.33-0.26l10.71,8.53
				c0.72,0.57,0.83,1.61,0.26,2.33l0,0C76.12-189.85,75.08-189.74,74.37-190.31z"/>
			<path class="st7" d="M70.24-195.71l-5.33-4.24c-0.18-0.15-0.21-0.41-0.07-0.6l0,0c0.15-0.18,0.41-0.21,0.6-0.07l5.33,4.24
				c0.18,0.15,0.21,0.41,0.07,0.6l0,0C70.69-195.59,70.43-195.56,70.24-195.71z"/>
			<path class="st6" d="M59.8-172.02l-10.71-8.53c-0.72-0.57-0.83-1.61-0.26-2.33v0c0.57-0.72,1.61-0.83,2.33-0.26l10.71,8.53
				c0.72,0.57,0.83,1.61,0.26,2.33l0,0C61.56-171.57,60.51-171.45,59.8-172.02z"/>
			<path class="st7" d="M55.68-177.42l-5.33-4.24c-0.18-0.15-0.21-0.41-0.07-0.6l0,0c0.15-0.18,0.41-0.21,0.6-0.07l5.33,4.24
				c0.18,0.15,0.21,0.41,0.07,0.6l0,0C56.13-177.31,55.86-177.28,55.68-177.42z"/>
			<path class="st6" d="M45.23-153.74l-10.71-8.53c-0.72-0.57-0.83-1.61-0.26-2.33h0c0.57-0.72,1.61-0.83,2.33-0.26l10.71,8.53
				c0.72,0.57,0.83,1.61,0.26,2.33l0,0C46.99-153.28,45.95-153.17,45.23-153.74z"/>
			<path class="st7" d="M41.11-159.14l-5.33-4.24c-0.18-0.15-0.21-0.41-0.07-0.6l0,0c0.15-0.18,0.41-0.21,0.6-0.07l5.33,4.24
				c0.18,0.15,0.21,0.41,0.07,0.6l0,0C41.56-159.02,41.29-158.99,41.11-159.14z"/>
			<path class="st6" d="M30.66-135.45l-10.71-8.53c-0.72-0.57-0.83-1.61-0.26-2.33h0c0.57-0.72,1.61-0.83,2.33-0.26l10.71,8.53
				c0.72,0.57,0.83,1.61,0.26,2.33h0C32.42-135,31.38-134.88,30.66-135.45z"/>
			<path class="st7" d="M26.54-140.85l-5.33-4.24c-0.18-0.15-0.21-0.41-0.07-0.6h0c0.15-0.18,0.41-0.21,0.6-0.07l5.33,4.24
				c0.18,0.15,0.21,0.41,0.07,0.6l0,0C26.99-140.74,26.73-140.71,26.54-140.85z"/>
			<path class="st6" d="M294.79-203.69l-110.43-87.98c-0.12-0.1-0.14-0.27-0.04-0.39c0.1-0.12,0.27-0.14,0.39-0.05l110.43,87.98
				c0.12,0.1,0.14,0.27,0.04,0.39S294.91-203.59,294.79-203.69z"/>
			<path class="st6" d="M284.57-190.86l-110.43-87.98c-0.12-0.1-0.14-0.27-0.04-0.39s0.27-0.14,0.39-0.05l110.43,87.98
				c0.12,0.1,0.14,0.27,0.04,0.39C284.86-190.78,284.69-190.76,284.57-190.86z"/>
			<path class="st6" d="M274.34-178.02L163.92-266c-0.12-0.1-0.14-0.27-0.04-0.39c0.1-0.12,0.27-0.14,0.39-0.05l110.43,87.98
				c0.12,0.1,0.14,0.27,0.04,0.39C274.64-177.95,274.46-177.93,274.34-178.02z"/>
			<path class="st6" d="M264.12-165.19l-110.43-87.98c-0.12-0.1-0.14-0.27-0.04-0.39c0.1-0.12,0.27-0.14,0.39-0.05l110.43,87.98
				c0.12,0.1,0.14,0.27,0.04,0.39C264.42-165.12,264.24-165.1,264.12-165.19z"/>
			<path class="st6" d="M253.9-152.36l-110.43-87.98c-0.12-0.1-0.14-0.27-0.04-0.39s0.27-0.14,0.39-0.05l110.43,87.98
				c0.12,0.1,0.14,0.27,0.04,0.39S254.02-152.27,253.9-152.36z"/>
			<path class="st6" d="M243.68-139.53l-110.43-87.98c-0.12-0.1-0.14-0.27-0.04-0.39c0.1-0.12,0.27-0.14,0.39-0.05l110.43,87.98
				c0.12,0.1,0.14,0.27,0.04,0.39C243.97-139.46,243.8-139.44,243.68-139.53z"/>
			<path class="st6" d="M233.46-126.7l-110.43-87.98c-0.12-0.1-0.14-0.27-0.04-0.39s0.27-0.14,0.39-0.05l110.43,87.98
				c0.12,0.1,0.14,0.27,0.04,0.39C233.75-126.63,233.58-126.6,233.46-126.7z"/>
			<path class="st6" d="M223.23-113.87L112.8-201.84c-0.12-0.1-0.14-0.27-0.04-0.39c0.1-0.12,0.27-0.14,0.39-0.05l110.43,87.98
				c0.12,0.1,0.14,0.27,0.04,0.39C223.53-113.79,223.35-113.77,223.23-113.87z"/>
			<path class="st6" d="M213.01-101.04l-110.43-87.98c-0.12-0.1-0.14-0.27-0.04-0.39c0.1-0.12,0.27-0.14,0.39-0.05l110.43,87.98
				c0.12,0.1,0.14,0.27,0.04,0.39C213.31-100.96,213.13-100.94,213.01-101.04z"/>
			<path class="st6" d="M202.79-88.21L92.36-176.18c-0.12-0.1-0.14-0.27-0.04-0.39c0.1-0.12,0.27-0.14,0.39-0.05l110.43,87.98
				c0.12,0.1,0.14,0.27,0.04,0.39S202.91-88.11,202.79-88.21z"/>
			<path class="st6" d="M192.57-75.38L82.14-163.35c-0.12-0.1-0.14-0.27-0.04-0.39c0.1-0.12,0.27-0.14,0.39-0.05l110.43,87.98
				c0.12,0.1,0.14,0.27,0.04,0.39C192.86-75.3,192.69-75.28,192.57-75.38z"/>
			<path class="st6" d="M182.34-62.54L71.92-150.52c-0.12-0.1-0.14-0.27-0.04-0.39c0.1-0.12,0.27-0.14,0.39-0.05l110.43,87.98
				c0.12,0.1,0.14,0.27,0.04,0.39C182.64-62.47,182.46-62.45,182.34-62.54z"/>
			<path class="st6" d="M172.12-49.71L61.69-137.69c-0.12-0.1-0.14-0.27-0.04-0.39c0.1-0.12,0.27-0.14,0.39-0.05l110.43,87.98
				c0.12,0.1,0.14,0.27,0.04,0.39C172.42-49.64,172.24-49.62,172.12-49.71z"/>
			<path class="st6" d="M161.9-36.88L51.47-124.86c-0.12-0.1-0.14-0.27-0.04-0.39c0.1-0.12,0.27-0.14,0.39-0.05l110.43,87.98
				c0.12,0.1,0.14,0.27,0.04,0.39C162.19-36.81,162.02-36.79,161.9-36.88z"/>
		</g>
	</g>
</pattern>
<g>
	<rect class="st8" width="1920" height="1080"/>
</g>
<g>
	<rect x="571" y="1237" class="st1" width="337" height="359"/>
	<g class="st2">
		
			<rect x="643.61" y="1290.65" transform="matrix(0.7821 0.6231 -0.6231 0.7821 1048.5463 -151.6708)" class="st3" width="195.12" height="265.93"/>
		
			<rect x="645.31" y="1288.51" transform="matrix(0.7821 0.6231 -0.6231 0.7821 1047.585 -153.1983)" class="st4" width="195.12" height="265.93"/>
		<g>
			
				<ellipse transform="matrix(0.6231 -0.7821 0.7821 0.6231 -716.9474 1069.386)" class="st5" cx="751.14" cy="1278.61" rx="4.64" ry="4.59"/>
			
				<ellipse transform="matrix(0.6231 -0.7821 0.7821 0.6231 -736.7388 1064.8838)" class="st5" cx="736.58" cy="1296.9" rx="4.64" ry="4.59"/>
			
				<ellipse transform="matrix(0.6231 -0.7821 0.7821 0.6231 -756.5303 1060.3816)" class="st5" cx="722.01" cy="1315.18" rx="4.64" ry="4.59"/>
			
				<ellipse transform="matrix(0.6231 -0.7821 0.7821 0.6231 -776.3218 1055.8794)" class="st5" cx="707.44" cy="1333.47" rx="4.64" ry="4.59"/>
			
				<ellipse transform="matrix(0.6231 -0.7821 0.7821 0.6231 -796.1133 1051.3772)" class="st5" cx="692.87" cy="1351.75" rx="4.64" ry="4.59"/>
			
				<ellipse transform="matrix(0.6231 -0.7821 0.7821 0.6231 -815.9048 1046.875)" class="st5" cx="678.31" cy="1370.04" rx="4.64" ry="4.59"/>
			
				<ellipse transform="matrix(0.6231 -0.7821 0.7821 0.6231 -835.6962 1042.3728)" class="st5" cx="663.74" cy="1388.32" rx="4.64" ry="4.59"/>
			
				<ellipse transform="matrix(0.6231 -0.7821 0.7821 0.6231 -855.4877 1037.8706)" class="st5" cx="649.17" cy="1406.61" rx="4.64" ry="4.59"/>
			
				<ellipse transform="matrix(0.6231 -0.7821 0.7821 0.6231 -875.2792 1033.3684)" class="st5" cx="634.6" cy="1424.89" rx="4.64" ry="4.59"/>
			
				<ellipse transform="matrix(0.6231 -0.7821 0.7821 0.6231 -895.0707 1028.8662)" class="st5" cx="620.04" cy="1443.18" rx="4.64" ry="4.59"/>
			
				<ellipse transform="matrix(0.6231 -0.7821 0.7821 0.6231 -914.8622 1024.364)" class="st5" cx="605.47" cy="1461.46" rx="4.64" ry="4.59"/>
		</g>
		<path class="st6" d="M747.34,1277.7l-10.71-8.53c-0.72-0.57-0.83-1.61-0.26-2.33h0c0.57-0.72,1.61-0.83,2.33-0.26l10.71,8.53
			c0.72,0.57,0.83,1.61,0.26,2.33l0,0C749.1,1278.15,748.05,1278.27,747.34,1277.7z"/>
		<path class="st7" d="M743.21,1272.3l-5.33-4.24c-0.18-0.15-0.21-0.41-0.07-0.6l0,0c0.15-0.18,0.41-0.21,0.6-0.07l5.33,4.24
			c0.18,0.15,0.21,0.41,0.07,0.6l0,0C743.67,1272.41,743.4,1272.44,743.21,1272.3z"/>
		<path class="st6" d="M732.77,1295.98l-10.71-8.53c-0.72-0.57-0.83-1.61-0.26-2.33l0,0c0.57-0.72,1.61-0.83,2.33-0.26l10.71,8.53
			c0.72,0.57,0.83,1.61,0.26,2.33l0,0C734.53,1296.44,733.49,1296.55,732.77,1295.98z"/>
		<path class="st7" d="M728.65,1290.58l-5.33-4.24c-0.18-0.15-0.21-0.41-0.07-0.6l0,0c0.15-0.18,0.41-0.21,0.6-0.07l5.33,4.24
			c0.18,0.15,0.21,0.41,0.07,0.6l0,0C729.1,1290.7,728.83,1290.73,728.65,1290.58z"/>
		<path class="st6" d="M718.2,1314.27l-10.71-8.53c-0.72-0.57-0.83-1.61-0.26-2.33l0,0c0.57-0.72,1.61-0.83,2.33-0.26l10.71,8.53
			c0.72,0.57,0.83,1.61,0.26,2.33l0,0C719.96,1314.72,718.92,1314.84,718.2,1314.27z"/>
		<path class="st7" d="M714.08,1308.87l-5.33-4.24c-0.18-0.15-0.21-0.41-0.07-0.6l0,0c0.15-0.18,0.41-0.21,0.6-0.07l5.33,4.24
			c0.18,0.15,0.21,0.41,0.07,0.6l0,0C714.53,1308.98,714.26,1309.01,714.08,1308.87z"/>
		<path class="st6" d="M703.64,1332.55l-10.71-8.53c-0.72-0.57-0.83-1.61-0.26-2.33l0,0c0.57-0.72,1.61-0.83,2.33-0.26l10.71,8.53
			c0.72,0.57,0.83,1.61,0.26,2.33l0,0C705.39,1333.01,704.35,1333.12,703.64,1332.55z"/>
		<path class="st7" d="M699.51,1327.15l-5.33-4.24c-0.18-0.15-0.21-0.41-0.07-0.6l0,0c0.15-0.18,0.41-0.21,0.6-0.07l5.33,4.24
			c0.18,0.15,0.21,0.41,0.07,0.6l0,0C699.96,1327.27,699.7,1327.3,699.51,1327.15z"/>
		<path class="st6" d="M689.07,1350.84l-10.71-8.53c-0.72-0.57-0.83-1.61-0.26-2.33l0,0c0.57-0.72,1.61-0.83,2.33-0.26l10.71,8.53
			c0.72,0.57,0.83,1.61,0.26,2.33l0,0C690.83,1351.29,689.78,1351.41,689.07,1350.84z"/>
		<path class="st7" d="M684.95,1345.44l-5.33-4.24c-0.18-0.15-0.21-0.41-0.07-0.6l0,0c0.15-0.18,0.41-0.21,0.6-0.07l5.33,4.24
			c0.18,0.15,0.21,0.41,0.07,0.6l0,0C685.4,1345.55,685.13,1345.58,684.95,1345.44z"/>
		<path class="st6" d="M674.5,1369.12l-10.71-8.53c-0.72-0.57-0.83-1.61-0.26-2.33l0,0c0.57-0.72,1.61-0.83,2.33-0.26l10.71,8.53
			c0.72,0.57,0.83,1.61,0.26,2.33l0,0C676.26,1369.58,675.22,1369.69,674.5,1369.12z"/>
		<path class="st7" d="M670.38,1363.72l-5.33-4.24c-0.18-0.15-0.21-0.41-0.07-0.6l0,0c0.15-0.18,0.41-0.21,0.6-0.07l5.33,4.24
			c0.18,0.15,0.21,0.41,0.07,0.6l0,0C670.83,1363.84,670.56,1363.87,670.38,1363.72z"/>
		<path class="st6" d="M659.93,1387.41l-10.71-8.53c-0.72-0.57-0.83-1.61-0.26-2.33l0,0c0.57-0.72,1.61-0.83,2.33-0.26l10.71,8.53
			c0.72,0.57,0.83,1.61,0.26,2.33l0,0C661.69,1387.86,660.65,1387.98,659.93,1387.41z"/>
		<path class="st7" d="M655.81,1382.01l-5.33-4.24c-0.18-0.15-0.21-0.41-0.07-0.6l0,0c0.15-0.18,0.41-0.21,0.6-0.07l5.33,4.24
			c0.18,0.15,0.21,0.41,0.07,0.6l0,0C656.26,1382.12,655.99,1382.15,655.81,1382.01z"/>
		<path class="st6" d="M645.37,1405.69l-10.71-8.53c-0.72-0.57-0.83-1.61-0.26-2.33l0,0c0.57-0.72,1.61-0.83,2.33-0.26l10.71,8.53
			c0.72,0.57,0.83,1.61,0.26,2.33l0,0C647.12,1406.15,646.08,1406.26,645.37,1405.69z"/>
		<path class="st7" d="M641.24,1400.29l-5.33-4.24c-0.18-0.15-0.21-0.41-0.07-0.6l0,0c0.15-0.18,0.41-0.21,0.6-0.07l5.33,4.24
			c0.18,0.15,0.21,0.41,0.07,0.6l0,0C641.69,1400.41,641.43,1400.44,641.24,1400.29z"/>
		<path class="st6" d="M630.8,1423.98l-10.71-8.53c-0.72-0.57-0.83-1.61-0.26-2.33l0,0c0.57-0.72,1.61-0.83,2.33-0.26l10.71,8.53
			c0.72,0.57,0.83,1.61,0.26,2.33l0,0C632.56,1424.43,631.51,1424.55,630.8,1423.98z"/>
		<path class="st7" d="M626.68,1418.58l-5.33-4.24c-0.18-0.15-0.21-0.41-0.07-0.6l0,0c0.15-0.18,0.41-0.21,0.6-0.07l5.33,4.24
			c0.18,0.15,0.21,0.41,0.07,0.6l0,0C627.13,1418.69,626.86,1418.72,626.68,1418.58z"/>
		<path class="st6" d="M616.23,1442.26l-10.71-8.53c-0.72-0.57-0.83-1.61-0.26-2.33l0,0c0.57-0.72,1.61-0.83,2.33-0.26l10.71,8.53
			c0.72,0.57,0.83,1.61,0.26,2.33l0,0C617.99,1442.72,616.95,1442.83,616.23,1442.26z"/>
		<path class="st7" d="M612.11,1436.86l-5.33-4.24c-0.18-0.15-0.21-0.41-0.07-0.6l0,0c0.15-0.18,0.41-0.21,0.6-0.07l5.33,4.24
			c0.18,0.15,0.21,0.41,0.07,0.6l0,0C612.56,1436.98,612.29,1437.01,612.11,1436.86z"/>
		<path class="st6" d="M601.66,1460.55l-10.71-8.53c-0.72-0.57-0.83-1.61-0.26-2.33l0,0c0.57-0.72,1.61-0.83,2.33-0.26l10.71,8.53
			c0.72,0.57,0.83,1.61,0.26,2.33l0,0C603.42,1461,602.38,1461.12,601.66,1460.55z"/>
		<path class="st7" d="M597.54,1455.15l-5.33-4.24c-0.18-0.15-0.21-0.41-0.07-0.6l0,0c0.15-0.18,0.41-0.21,0.6-0.07l5.33,4.24
			c0.18,0.15,0.21,0.41,0.07,0.6l0,0C597.99,1455.26,597.73,1455.29,597.54,1455.15z"/>
		<path class="st6" d="M865.79,1392.31l-110.43-87.98c-0.12-0.1-0.14-0.27-0.04-0.39c0.1-0.12,0.27-0.14,0.39-0.05l110.43,87.98
			c0.12,0.1,0.14,0.27,0.04,0.39C866.08,1392.39,865.91,1392.41,865.79,1392.31z"/>
		<path class="st6" d="M855.57,1405.14l-110.43-87.98c-0.12-0.1-0.14-0.27-0.04-0.39c0.1-0.12,0.27-0.14,0.39-0.05l110.43,87.98
			c0.12,0.1,0.14,0.27,0.04,0.39C855.86,1405.22,855.69,1405.24,855.57,1405.14z"/>
		<path class="st6" d="M845.34,1417.98L734.92,1330c-0.12-0.1-0.14-0.27-0.04-0.39c0.1-0.12,0.27-0.14,0.39-0.05l110.43,87.98
			c0.12,0.1,0.14,0.27,0.04,0.39C845.64,1418.05,845.46,1418.07,845.34,1417.98z"/>
		<path class="st6" d="M835.12,1430.81l-110.43-87.98c-0.12-0.1-0.14-0.27-0.04-0.39c0.1-0.12,0.27-0.14,0.39-0.05l110.43,87.98
			c0.12,0.1,0.14,0.27,0.04,0.39C835.42,1430.88,835.24,1430.9,835.12,1430.81z"/>
		<path class="st6" d="M824.9,1443.64l-110.43-87.98c-0.12-0.1-0.14-0.27-0.04-0.39c0.1-0.12,0.27-0.14,0.39-0.05l110.43,87.98
			c0.12,0.1,0.14,0.27,0.04,0.39C825.2,1443.71,825.02,1443.73,824.9,1443.64z"/>
		<path class="st6" d="M814.68,1456.47l-110.43-87.98c-0.12-0.1-0.14-0.27-0.04-0.39c0.1-0.12,0.27-0.14,0.39-0.05l110.43,87.98
			c0.12,0.1,0.14,0.27,0.04,0.39C814.97,1456.54,814.8,1456.56,814.68,1456.47z"/>
		<path class="st6" d="M804.46,1469.3l-110.43-87.98c-0.12-0.1-0.14-0.27-0.04-0.39c0.1-0.12,0.27-0.14,0.39-0.05l110.43,87.98
			c0.12,0.1,0.14,0.27,0.04,0.39C804.75,1469.37,804.58,1469.4,804.46,1469.3z"/>
		<path class="st6" d="M794.23,1482.13l-110.43-87.98c-0.12-0.1-0.14-0.27-0.04-0.39c0.1-0.12,0.27-0.14,0.39-0.05l110.43,87.98
			c0.12,0.1,0.14,0.27,0.04,0.39C794.53,1482.21,794.35,1482.23,794.23,1482.13z"/>
		<path class="st6" d="M784.01,1494.96l-110.43-87.98c-0.12-0.1-0.14-0.27-0.04-0.39c0.1-0.12,0.27-0.14,0.39-0.05l110.43,87.98
			c0.12,0.1,0.14,0.27,0.04,0.39C784.31,1495.04,784.13,1495.06,784.01,1494.96z"/>
		<path class="st6" d="M773.79,1507.79l-110.43-87.98c-0.12-0.1-0.14-0.27-0.04-0.39c0.1-0.12,0.27-0.14,0.39-0.05l110.43,87.98
			c0.12,0.1,0.14,0.27,0.04,0.39C774.08,1507.87,773.91,1507.89,773.79,1507.79z"/>
		<path class="st6" d="M763.57,1520.62l-110.43-87.98c-0.12-0.1-0.14-0.27-0.04-0.39c0.1-0.12,0.27-0.14,0.39-0.05l110.43,87.98
			c0.12,0.1,0.14,0.27,0.04,0.39C763.86,1520.7,763.69,1520.72,763.57,1520.62z"/>
		<path class="st6" d="M753.34,1533.46l-110.43-87.98c-0.12-0.1-0.14-0.27-0.04-0.39c0.1-0.12,0.27-0.14,0.39-0.05l110.43,87.98
			c0.12,0.1,0.14,0.27,0.04,0.39C753.64,1533.53,753.46,1533.55,753.34,1533.46z"/>
		<path class="st6" d="M743.12,1546.29l-110.43-87.98c-0.12-0.1-0.14-0.27-0.04-0.39c0.1-0.12,0.27-0.14,0.39-0.05l110.43,87.98
			c0.12,0.1,0.14,0.27,0.04,0.39C743.42,1546.36,743.24,1546.38,743.12,1546.29z"/>
		<path class="st6" d="M732.9,1559.12l-110.43-87.98c-0.12-0.1-0.14-0.27-0.04-0.39c0.1-0.12,0.27-0.14,0.39-0.05l110.43,87.98
			c0.12,0.1,0.14,0.27,0.04,0.39C733.19,1559.19,733.02,1559.21,732.9,1559.12z"/>
	</g>
</g>
</svg>
